<?xml version="1.0" standalone="no"?>
<!DOCTYPE svg PUBLIC "-//W3C//DTD SVG 20010904//EN"
 "http://www.w3.org/TR/2001/REC-SVG-20010904/DTD/svg10.dtd">
<svg version="1.0" xmlns="http://www.w3.org/2000/svg"
 width="192.000000pt" height="192.000000pt" viewBox="0 0 192.000000 192.000000"
 preserveAspectRatio="xMidYMid meet">
<metadata>
Created by potrace 1.11, written by Peter Selinger 2001-2013
</metadata>
<g transform="translate(0.000000,192.000000) scale(0.100000,-0.100000)"
fill="#000000" stroke="none">
<path d="M129 1799 c-36 -14 -50 -52 -53 -145 -4 -142 31 -287 84 -344 29 -31
53 -32 76 -2 8 11 13 5 24 -30 17 -53 53 -112 79 -130 16 -11 19 -25 18 -64
l-1 -50 -57 -27 c-70 -33 -141 -103 -177 -176 -24 -49 -27 -68 -27 -151 0 -83
3 -102 27 -150 39 -79 88 -132 155 -167 92 -49 179 -61 263 -36 66 19 74 17
93 -25 36 -82 134 -161 230 -186 162 -42 337 33 413 177 l28 55 40 -15 c223
-79 471 93 480 334 6 142 -85 285 -218 344 -49 21 -49 22 -46 84 1 28 9 47 27
64 28 27 73 115 73 145 0 18 2 18 25 -4 l25 -24 26 20 c58 43 91 145 100 304
6 116 -9 176 -49 197 -46 23 -212 12 -337 -23 -83 -24 -185 -81 -230 -130
l-40 -44 -83 7 c-99 8 -176 8 -281 -1 l-79 -6 -48 48 c-90 91 -252 149 -434
157 -57 3 -111 0 -126 -6z"/>
</g>
</svg>
